<?xml version="1.0" encoding="UTF-8"?>
<svg xmlns="http://www.w3.org/2000/svg" xmlns:xlink="http://www.w3.org/1999/xlink" width="810pt" height="809.999993pt" viewBox="0 0 810 809.999993" version="1.2">
<g id="surface1">
<path style=" stroke:none;fill-rule:nonzero;fill:rgb(96.078491%,91.369629%,85.879517%);fill-opacity:1;" d="M 800.574219 525.203125 C 791.792969 533.996094 780.941406 542.136719 766.4375 550.816406 C 721.152344 577.921875 668.003906 595.617188 612.738281 601.996094 C 607.308594 602.625 598.792969 603.367188 589.03125 603.367188 C 589.03125 603.367188 589.03125 603.367188 589.027344 603.367188 C 575.046875 603.367188 563.300781 601.796875 555.070312 598.832031 C 549.828125 596.941406 545.570312 592.367188 542.0625 584.847656 L 541.871094 584.4375 L 541.828125 584.40625 C 541.71875 584.152344 540.519531 581.382812 540.519531 581.382812 L 538.882812 582.683594 C 531.089844 588.890625 521.964844 593.644531 511.769531 596.816406 C 497.832031 601.160156 484.839844 603.359375 473.15625 603.359375 C 471.652344 603.359375 470.144531 603.324219 468.683594 603.25 C 461.894531 602.914062 455.660156 601.679688 449.625 599.480469 C 447.070312 598.542969 435.800781 593.570312 435.6875 593.519531 L 435.1875 593.296875 L 434.65625 593.429688 C 434.578125 593.449219 426.828125 595.328125 416.195312 595.328125 C 414.664062 595.328125 413.128906 595.292969 411.625 595.214844 L 410.414062 595.152344 L 410.023438 596.308594 C 407.773438 603.011719 405.882812 608.855469 404.25 614.175781 C 402.558594 619.6875 401.152344 624.582031 399.914062 628.902344 C 395.390625 644.632812 393.109375 652.574219 387.6875 653.464844 C 381.84375 653.617188 376.933594 653.753906 372.734375 653.871094 C 364.226562 654.117188 358.601562 654.273438 354.042969 654.273438 C 348.175781 654.273438 343.921875 654.019531 336.527344 653.226562 C 332.222656 652.765625 328.757812 651.144531 326.757812 648.667969 L 326.285156 648.082031 L 324.449219 648.058594 C 324.738281 648.617188 325.09375 649.15625 325.511719 649.671875 C 323.863281 649.671875 322.296875 649.632812 320.804688 649.59375 C 320.542969 649.078125 320.34375 648.554688 320.171875 648.011719 L 316.289062 647.96875 C 295.964844 647.738281 292.300781 647.699219 280.023438 645.894531 C 274.160156 645.035156 269.976562 642.082031 269.109375 638.1875 C 268.414062 635.082031 270.070312 631.941406 273.648438 629.5625 C 281.015625 624.675781 291.097656 621.199219 291.199219 621.164062 L 292.007812 620.886719 L 296.644531 603.449219 C 287.230469 604.457031 277.4375 604.96875 267.351562 604.96875 C 212.671875 604.96875 166.304688 590.339844 145.421875 559.417969 L 12.464844 559.417969 L 12.464844 548.265625 L 10.75 548.265625 L 10.679688 548.277344 C 7.234375 548.230469 4.445312 545.414062 4.445312 541.953125 C 4.445312 539.074219 6.40625 536.566406 9.210938 535.851562 L 11.179688 535.347656 L 10.230469 533.546875 C 9.90625 532.933594 9.59375 532.125 9.296875 531.148438 C 7.328125 530.660156 6.140625 530.046875 5.992188 529.964844 C 5.035156 529.445312 4.6875 528.253906 5.210938 527.296875 C 5.730469 526.347656 6.925781 526 7.863281 526.511719 C 7.902344 526.535156 8.042969 526.609375 8.265625 526.703125 L 8.152344 526.058594 C 2.332031 492.832031 6.644531 384.226562 6.683594 383.132812 L 6.6875 383.027344 L 6.679688 382.925781 C 5.78125 372.972656 8.289062 364.679688 14.144531 358.265625 C 22.1875 349.457031 34.644531 346.332031 42.875 346.332031 C 43.417969 346.324219 94.867188 345.375 145.625 345.375 C 185.519531 345.375 214.148438 345.941406 230.839844 347.0625 C 233.054688 346.058594 235.410156 345.113281 237.929688 344.242188 C 238.9375 343.894531 240.074219 344.425781 240.425781 345.457031 C 240.734375 346.34375 240.34375 347.273438 239.570312 347.746094 L 240.3125 347.910156 C 245.609375 348.558594 246.707031 349.160156 246.890625 349.296875 L 247.332031 351.042969 L 274.523438 351.042969 L 274.519531 351.035156 L 276.171875 351.042969 L 276.421875 349.527344 C 275.023438 349.0625 274.070312 348.71875 273.582031 348.539062 L 273.152344 348.914062 L 272.929688 348.570312 C 272.847656 348.445312 272.824219 348.25 272.957031 348.128906 C 273 348.089844 273.234375 347.878906 273.636719 347.523438 C 277.855469 339.285156 312.515625 274.507812 372.09375 248.800781 C 381.371094 244.796875 390.929688 241.90625 400.492188 239.878906 L 400.421875 239.679688 C 399.277344 236.445312 398.101562 232.996094 397.386719 229.503906 C 395.082031 218.203125 396.140625 206.695312 400.21875 198.730469 C 412.195312 175.320312 435.996094 172.476562 436.234375 172.449219 L 436.695312 172.398438 L 437.058594 172.113281 C 437.234375 171.972656 454.929688 158.226562 480.6875 158.226562 C 483.121094 158.226562 485.585938 158.351562 488.007812 158.59375 C 504.460938 160.242188 521.089844 169.585938 532.5 183.589844 C 542.429688 195.777344 547.105469 210.144531 545.671875 224.054688 C 544.097656 239.332031 536.566406 253.109375 529.285156 266.433594 L 529.085938 266.800781 L 530.183594 267.785156 C 543.847656 258.265625 559.394531 249.925781 576.484375 244.746094 C 637.242188 226.332031 704.109375 252.605469 714.976562 257.179688 L 736.226562 257.179688 C 736.9375 257.851562 737.792969 258.726562 738.0625 259.160156 C 739.828125 262.019531 738.757812 267.5625 736.019531 269.746094 L 732.753906 272.347656 L 736.921875 272.597656 C 744.828125 273.074219 746.191406 273.5 746.378906 273.578125 C 748.714844 274.625 749.402344 277.308594 749.601562 278.816406 C 750.140625 282.859375 748.601562 287.5 746.019531 289.617188 C 745.90625 289.679688 744.742188 290.203125 738.585938 290.773438 L 734.992188 291.101562 L 737.644531 293.546875 C 738.460938 294.296875 738.90625 295.453125 738.902344 296.8125 C 738.894531 298.652344 738.066406 300.550781 736.734375 301.761719 L 733.910156 304.324219 L 737.710938 304.550781 C 742.855469 304.855469 743.816406 305.113281 743.957031 305.160156 C 745.832031 305.835938 746.550781 307.339844 746.824219 308.484375 C 747.402344 310.894531 746.558594 313.902344 744.773438 315.800781 L 742.550781 318.160156 L 745.773438 318.492188 C 750.117188 318.941406 751.003906 319.300781 751.136719 319.367188 C 755.5625 321.8125 755.878906 332.28125 752.890625 338.609375 C 752.671875 339.078125 752.496094 339.566406 752.332031 340.027344 C 752.210938 340.363281 752.101562 340.679688 751.972656 340.9375 L 750.820312 343.253906 L 770.820312 343.253906 L 770.820312 366.933594 C 769.933594 367.035156 769.050781 367.113281 768.140625 367.113281 C 758.445312 367.113281 749.886719 357.605469 745.566406 349.511719 L 614.738281 349.511719 C 610.417969 357.605469 601.855469 367.113281 592.160156 367.113281 C 590.707031 367.113281 589.296875 366.957031 587.878906 366.71875 L 587.878906 369.15625 L 770.820312 369.15625 L 770.820312 471.285156 L 771.234375 471.742188 C 777.113281 478.253906 782.859375 485.410156 787.855469 492.429688 L 788.726562 493.648438 C 793.21875 499.894531 806.875 518.894531 800.574219 525.203125 Z M 772.421875 369.15625 L 772.421875 366.71875 C 771.890625 366.808594 771.355469 366.871094 770.820312 366.933594 L 770.820312 369.15625 Z M 772.421875 369.15625 "/>
<path style=" stroke:none;fill-rule:nonzero;fill:rgb(75.289917%,30.979919%,26.669312%);fill-opacity:1;" d="M 366.980469 357.652344 C 355.476562 358.96875 345.589844 365.109375 338.535156 374.210938 C 330.476562 384.613281 327.886719 396.683594 323.558594 408.765625 C 321.550781 414.367188 319.683594 420.027344 317.878906 425.714844 C 302.328125 422.835938 285.292969 421.628906 267.351562 421.628906 C 253.089844 421.628906 239.402344 422.390625 226.570312 424.140625 C 226.269531 424.070312 225.972656 424.015625 225.667969 423.929688 C 225.441406 423.863281 225.210938 424.121094 224.984375 424.058594 C 217.648438 425.109375 210.601562 426.652344 203.902344 428.425781 C 203.785156 428.511719 203.671875 428.589844 203.554688 428.671875 C 199.175781 429.839844 194.960938 431.191406 190.902344 432.703125 C 190.871094 432.703125 190.835938 432.703125 190.804688 432.703125 C 189.609375 433.148438 188.441406 433.621094 187.277344 434.097656 C 187.164062 434.144531 187.042969 434.191406 186.933594 434.234375 C 183.625 435.605469 180.4375 437.101562 177.378906 438.734375 C 177.042969 438.914062 176.714844 439.105469 176.378906 439.289062 C 175.246094 439.910156 174.128906 440.546875 173.03125 441.207031 C 172.59375 441.472656 172.160156 441.746094 171.726562 442.015625 C 170.746094 442.628906 169.78125 443.257812 168.832031 443.902344 C 168.386719 444.207031 167.9375 444.511719 167.5 444.824219 C 166.5625 445.488281 165.644531 446.175781 164.738281 446.875 C 164.34375 447.179688 163.941406 447.480469 163.550781 447.792969 C 162.515625 448.625 161.511719 449.480469 160.523438 450.359375 C 160.296875 450.5625 160.058594 450.75 159.835938 450.953125 C 159.789062 450.992188 159.734375 451.035156 159.691406 451.078125 C 159.695312 451.078125 159.703125 451.074219 159.710938 451.074219 C 143.242188 466.109375 133.554688 487.976562 133.554688 519.066406 C 133.554688 535.484375 138.195312 549.433594 146.492188 561.019531 L 10.863281 561.019531 L 10.863281 549.871094 C 15.191406 549.816406 18.6875 546.296875 18.6875 541.953125 C 18.6875 539.917969 17.898438 538.082031 16.636719 536.679688 C 26.355469 536.808594 35.65625 533.019531 41.179688 523.398438 C 43.257812 519.785156 45 516.480469 46.570312 513.332031 C 47.707031 516.316406 50.574219 518.449219 53.957031 518.449219 C 58.328125 518.449219 61.875 514.902344 61.875 510.527344 C 61.875 506.148438 58.328125 502.601562 53.957031 502.601562 C 53.085938 502.601562 52.261719 502.777344 51.480469 503.035156 C 54.902344 495.648438 58.238281 488.449219 63.839844 479.441406 C 66.921875 474.480469 70.226562 469.804688 73.820312 465.433594 C 74.730469 468.808594 77.78125 471.304688 81.4375 471.304688 C 85.8125 471.304688 89.359375 467.757812 89.359375 463.378906 C 89.359375 459.542969 86.636719 456.34375 83.015625 455.613281 C 88.070312 450.894531 93.65625 446.695312 99.925781 443.109375 C 107.230469 438.9375 114.234375 437.132812 121.289062 436.574219 C 118.589844 437.835938 116.710938 440.558594 116.710938 443.738281 C 116.710938 448.113281 120.257812 451.664062 124.628906 451.664062 C 129.003906 451.664062 132.550781 448.113281 132.550781 443.738281 C 132.550781 440.382812 130.464844 437.535156 127.527344 436.375 C 135.257812 436.46875 143.171875 437.65625 151.714844 438.566406 C 169.214844 440.429688 179.46875 430.003906 187.441406 416.808594 C 187.742188 420.914062 191.128906 424.160156 195.304688 424.160156 C 199.679688 424.160156 203.226562 420.609375 203.226562 416.234375 C 203.226562 411.859375 199.679688 408.3125 195.304688 408.3125 C 193.996094 408.3125 192.777344 408.660156 191.691406 409.222656 C 196.601562 399.867188 200.90625 390.0625 206.105469 382.699219 C 211.183594 375.507812 216.621094 369.757812 222.761719 364.757812 C 222.757812 364.890625 222.722656 365.023438 222.722656 365.160156 C 222.722656 369.539062 226.269531 373.085938 230.644531 373.085938 C 235.015625 373.085938 238.5625 369.539062 238.5625 365.160156 C 238.5625 361.539062 236.121094 358.515625 232.800781 357.570312 C 237.21875 354.78125 241.984375 352.148438 247.214844 349.515625 C 247.261719 349.492188 247.285156 349.472656 247.328125 349.445312 L 382.210938 349.445312 C 382.023438 349.6875 381.828125 349.925781 381.644531 350.171875 L 378.03125 350.199219 C 376.269531 350.214844 375.242188 351.605469 375.742188 353.296875 L 376.867188 357.078125 C 376.855469 357.097656 376.84375 357.113281 376.832031 357.136719 C 373.429688 357.070312 369.96875 357.3125 366.980469 357.652344 Z M 587.882812 349.441406 L 581.476562 349.441406 C 583.789062 352.757812 585.914062 356.183594 587.882812 359.679688 Z M 789.160156 491.503906 C 784.394531 484.808594 778.722656 477.652344 772.425781 470.671875 C 768.703125 466.546875 764.753906 462.480469 760.644531 458.597656 C 749.429688 448.011719 737 438.828125 724.507812 433.679688 C 714.164062 429.417969 700.164062 431.195312 689.367188 432.007812 C 674.488281 433.128906 659.710938 436.035156 645.300781 439.863281 C 632.371094 443.300781 619.699219 447.53125 607.089844 451.964844 C 605.539062 472.226562 599.695312 493.597656 582.96875 505.125 C 579.945312 518.667969 575.402344 531.800781 568.648438 543.160156 C 564.453125 552.113281 559.757812 560.585938 554.988281 567.664062 C 551.339844 573.074219 547.042969 577.839844 542.25 581.984375 C 543.785156 583.289062 545.476562 584.34375 547.371094 585.023438 C 555.667969 588.011719 567.515625 589.875 581.628906 589.875 L 581.636719 589.875 C 591.5 589.875 600.105469 588.839844 605.589844 588.207031 C 661.488281 581.757812 715.246094 563.578125 761.039062 536.164062 C 775.695312 527.386719 786.65625 519.167969 795.527344 510.289062 C 797.296875 508.519531 797.398438 505.675781 796.589844 502.398438 C 797.984375 504.648438 799.328125 507.023438 800.492188 509.417969 C 800.074219 510.773438 799.363281 512.003906 798.304688 513.066406 C 789.199219 522.179688 778 530.589844 763.054688 539.535156 C 716.785156 567.230469 662.488281 585.234375 606.039062 591.746094 C 600.453125 592.386719 591.6875 593.078125 581.636719 593.078125 L 581.628906 593.078125 C 571.472656 593.078125 557.054688 592.359375 546.042969 588.390625 C 544.042969 587.671875 542.253906 586.75 540.613281 585.527344 C 543.792969 592.347656 548.117188 598.035156 554.53125 600.34375 C 570.753906 606.1875 596.054688 605.535156 612.921875 603.589844 C 666.992188 597.347656 720.480469 580.195312 767.261719 552.195312 C 779.5625 544.832031 791.542969 536.515625 801.707031 526.339844 C 809.414062 518.625 793.621094 497.777344 789.160156 491.503906 Z M 510.160156 413.238281 L 514.574219 409.871094 C 514.574219 409.871094 543.273438 447.214844 551.285156 447.214844 L 551.402344 447.214844 C 557.761719 447.214844 560.085938 441.746094 559.84375 433.546875 C 559.011719 413.300781 543.359375 377.921875 533.421875 365.070312 L 533.453125 364.570312 C 533.445312 364.558594 533.433594 364.542969 533.421875 364.535156 L 529.421875 366.277344 L 530.324219 367.457031 C 543.125 384.039062 560.636719 429.300781 554.863281 441.871094 C 554.121094 443.484375 553.09375 444.230469 551.371094 444.347656 C 546.890625 443.289062 530.441406 424.785156 517.714844 408.050781 L 515.359375 404.90625 L 512.222656 407.265625 L 507.746094 410.625 C 503.246094 405.6875 497.910156 401.402344 491.78125 398.773438 L 498.777344 422.269531 L 510.429688 413.523438 C 510.34375 413.429688 510.25 413.335938 510.160156 413.238281 Z M 454.65625 474.257812 L 441.148438 538.804688 L 435.101562 557.78125 L 426.597656 554.277344 C 426.148438 555.511719 425.703125 556.730469 425.261719 557.953125 L 433.613281 561.394531 L 437.535156 563.003906 L 438.835938 558.957031 L 444.878906 539.980469 L 444.957031 539.824219 L 444.996094 539.589844 L 456.890625 482.703125 C 456.894531 482.695312 454.542969 474.886719 454.65625 474.257812 Z M 409.890625 367.742188 C 409.871094 367.726562 409.847656 367.714844 409.820312 367.699219 C 409.417969 367.464844 408.996094 367.25 408.5625 367.042969 C 408.539062 367.03125 408.523438 367.023438 408.5 367.011719 C 408.179688 366.859375 407.851562 366.710938 407.519531 366.574219 C 407.351562 366.503906 407.195312 366.433594 407.03125 366.367188 C 400.628906 370.570312 395.292969 376.03125 391.402344 382.515625 C 385.554688 392.375 382.53125 404.042969 379.585938 415.355469 C 378.722656 418.734375 377.894531 421.921875 376.992188 425.023438 L 376.519531 426.671875 C 368.199219 455.625 359.601562 485.605469 353.945312 515.5 L 353.554688 517.425781 C 353.121094 519.742188 352.804688 521.273438 352.6875 521.941406 L 352.570312 522.453125 L 352.136719 524.375 L 351.472656 527.554688 L 354.492188 528.816406 L 368.652344 534.644531 C 368.984375 533.378906 369.316406 532.105469 369.652344 530.832031 L 355.988281 525.203125 L 356.042969 524.953125 L 356.410156 523.257812 C 356.414062 523.25 356.511719 522.789062 356.699219 521.886719 C 356.742188 521.667969 356.792969 521.425781 356.847656 521.152344 C 357.003906 520.371094 357.199219 519.382812 357.425781 518.160156 L 357.792969 516.222656 C 357.960938 515.328125 358.160156 514.441406 358.332031 513.546875 C 364.066406 484.183594 372.53125 454.835938 380.765625 426.117188 C 384.652344 412.558594 387.476562 396.726562 394.785156 384.546875 C 394.847656 384.445312 394.917969 384.347656 394.980469 384.242188 C 395.417969 383.523438 395.878906 382.816406 396.351562 382.125 C 396.398438 382.058594 396.449219 381.996094 396.492188 381.929688 C 396.992188 381.21875 397.507812 380.519531 398.042969 379.839844 C 398.117188 379.746094 398.191406 379.65625 398.265625 379.5625 C 398.769531 378.933594 399.289062 378.316406 399.824219 377.71875 C 399.933594 377.59375 400.046875 377.46875 400.15625 377.34375 C 400.660156 376.792969 401.171875 376.261719 401.695312 375.738281 C 401.84375 375.589844 401.988281 375.4375 402.132812 375.296875 C 402.65625 374.792969 403.191406 374.300781 403.734375 373.820312 C 403.878906 373.6875 404.019531 373.550781 404.167969 373.425781 C 404.832031 372.851562 405.511719 372.296875 406.203125 371.761719 C 406.414062 371.597656 406.628906 371.449219 406.84375 371.289062 C 407.359375 370.902344 407.878906 370.523438 408.410156 370.15625 C 408.617188 370.019531 408.824219 369.882812 409.035156 369.746094 C 409.660156 369.328125 410.296875 368.925781 410.941406 368.539062 C 410.972656 368.519531 411 368.496094 411.03125 368.476562 C 410.898438 368.375 410.746094 368.28125 410.601562 368.179688 C 410.371094 368.035156 410.140625 367.886719 409.890625 367.742188 Z M 575.277344 513.617188 C 577.476562 512.753906 579.589844 511.769531 581.601562 510.589844 C 582.105469 508.792969 582.535156 506.992188 582.925781 505.148438 C 581.835938 505.898438 580.691406 506.597656 579.507812 507.261719 C 577.734375 508.265625 575.863281 509.183594 573.863281 509.960938 C 572.5625 510.460938 571.257812 510.894531 569.949219 511.296875 C 567.765625 511.972656 565.566406 512.523438 563.351562 512.929688 C 563.339844 512.933594 563.320312 512.933594 563.308594 512.9375 C 562.460938 513.089844 561.609375 513.226562 560.757812 513.34375 C 560.398438 513.390625 560.035156 513.425781 559.675781 513.46875 C 559.175781 513.523438 558.671875 513.589844 558.167969 513.632812 C 557.539062 513.691406 556.910156 513.730469 556.277344 513.765625 C 556.042969 513.78125 555.808594 513.800781 555.574219 513.8125 C 554.816406 513.851562 554.058594 513.867188 553.300781 513.875 C 553.1875 513.875 553.070312 513.878906 552.957031 513.882812 C 552.859375 513.882812 552.757812 513.890625 552.660156 513.890625 C 552.417969 513.890625 552.171875 513.867188 551.929688 513.863281 C 551.097656 513.855469 550.265625 513.832031 549.433594 513.785156 C 549.023438 513.765625 548.613281 513.746094 548.203125 513.714844 C 547.152344 513.636719 546.101562 513.546875 545.050781 513.417969 C 544.710938 513.378906 544.375 513.320312 544.035156 513.277344 C 543.226562 513.167969 542.425781 513.042969 541.625 512.90625 C 541.203125 512.835938 540.789062 512.761719 540.371094 512.679688 C 539.335938 512.480469 538.296875 512.265625 537.265625 512.019531 C 536.953125 511.941406 536.640625 511.851562 536.324219 511.773438 C 535.511719 511.566406 534.703125 511.347656 533.894531 511.113281 C 533.5 511 533.101562 510.878906 532.707031 510.757812 C 531.675781 510.4375 530.652344 510.101562 529.636719 509.738281 C 529.375 509.644531 529.117188 509.539062 528.855469 509.441406 C 528.019531 509.132812 527.179688 508.804688 526.351562 508.464844 C 525.992188 508.316406 525.636719 508.167969 525.28125 508.015625 C 524.257812 507.582031 523.246094 507.125 522.246094 506.648438 C 522.058594 506.554688 521.875 506.457031 521.683594 506.363281 C 521.214844 506.132812 520.742188 505.902344 520.277344 505.660156 L 520.28125 505.621094 C 520.28125 505.621094 511.976562 477.527344 507.585938 462.433594 C 507.433594 461.914062 507.289062 461.410156 507.148438 460.929688 C 506.246094 461.753906 504.984375 462.300781 503.496094 462.421875 C 503.5 462.441406 503.503906 462.457031 503.511719 462.46875 C 505.941406 470.84375 511.554688 489.914062 515.382812 502.882812 C 515.390625 502.902344 515.394531 502.921875 515.402344 502.941406 C 515.390625 502.933594 515.378906 502.929688 515.371094 502.921875 C 515.921875 504.773438 516.464844 506.605469 517.003906 508.421875 C 517.007812 508.425781 517.015625 508.429688 517.019531 508.433594 C 518.378906 513.023438 519.257812 516.007812 519.257812 516.007812 L 519.867188 509.882812 C 530.296875 515 541.558594 517.820312 552.660156 517.820312 C 560.554688 517.820312 568.167969 516.410156 575.277344 513.617188 Z M 605.238281 290.859375 C 606.179688 291.402344 609.035156 291.875 613.3125 292.277344 C 613.875 291.890625 614.507812 291.539062 615.230469 291.242188 C 621.796875 288.582031 731.582031 289.410156 736.851562 291.242188 C 737.605469 291.503906 738.21875 291.894531 738.730469 292.367188 C 743.351562 291.945312 746.328125 291.441406 747.035156 290.859375 C 752.277344 286.558594 753.179688 274.867188 747.035156 272.117188 C 746.125 271.707031 742.511719 271.332031 737.019531 271 C 710.621094 269.410156 640.488281 268.875 614.636719 270.753906 C 609.648438 271.113281 606.296875 271.566406 605.242188 272.117188 C 597.578125 276.128906 597.730469 286.558594 605.238281 290.859375 Z M 596.753906 338.28125 C 592.695312 331.695312 593.847656 322.113281 600.46875 317.832031 C 601.171875 317.378906 602.847656 316.980469 605.289062 316.625 C 628.285156 313.300781 721.011719 314.3125 745.941406 316.902344 C 749.132812 317.234375 751.226562 317.589844 751.90625 317.964844 C 757.359375 320.976562 757.613281 332.359375 754.34375 339.296875 C 753.957031 340.121094 753.722656 341.03125 753.414062 341.65625 C 753.183594 342.109375 752.921875 342.421875 752.519531 342.421875 L 753.027344 341.761719 L 600.472656 341.761719 C 600.472656 341.761719 600.414062 341.722656 600.328125 341.660156 C 599.753906 341.242188 597.582031 339.621094 596.753906 338.28125 Z M 612.671875 331.320312 L 705.171875 331.320312 L 705.171875 323.464844 L 612.671875 323.464844 Z M 612.671875 331.320312 "/>
<path style=" stroke:none;fill-rule:nonzero;fill:rgb(100%,67.059326%,40.388489%);fill-opacity:1;" d="M 5.085938 383.070312 C 2.5 354.558594 27.691406 344.730469 42.875 344.730469 C 42.875 344.730469 187.636719 342.035156 234.0625 345.695312 C 211.179688 354.875 202.507812 370.34375 192.5625 388.117188 C 188.136719 396.03125 183.554688 404.21875 177.292969 412.859375 C 166.648438 427.535156 158.453125 426.796875 146.0625 425.679688 C 134.101562 424.597656 119.195312 423.25 96.25 434.027344 C 63.929688 449.203125 51.621094 478.136719 42.636719 499.261719 C 38.523438 508.929688 34.96875 517.285156 30.707031 520.878906 C 17.9375 531.640625 8.289062 526.734375 7.867188 526.511719 C 7.460938 526.289062 7.003906 526.257812 6.574219 526.34375 C 0.65625 492.554688 5.085938 383.070312 5.085938 383.070312 Z M 178.875 437.980469 C 178.867188 437.988281 178.859375 437.992188 178.851562 437.996094 C 179.09375 437.871094 179.347656 437.75 179.59375 437.625 C 179.558594 437.640625 179.527344 437.660156 179.492188 437.671875 C 179.285156 437.769531 179.078125 437.871094 178.875 437.980469 Z M 176.378906 439.289062 C 175.246094 439.910156 174.128906 440.546875 173.03125 441.207031 C 172.59375 441.472656 172.160156 441.742188 171.726562 442.015625 C 170.746094 442.628906 169.78125 443.253906 168.832031 443.902344 C 168.386719 444.207031 167.9375 444.511719 167.5 444.824219 C 166.5625 445.488281 165.644531 446.175781 164.738281 446.875 C 164.34375 447.179688 163.941406 447.480469 163.550781 447.789062 C 162.515625 448.621094 161.511719 449.480469 160.523438 450.355469 C 160.296875 450.558594 160.058594 450.75 159.835938 450.953125 C 159.789062 450.992188 159.734375 451.035156 159.691406 451.078125 C 159.695312 451.074219 159.703125 451.074219 159.710938 451.070312 C 161.332031 450.75 163.242188 450.160156 165.628906 449.007812 C 168.089844 447.816406 170.132812 445.730469 172.304688 443.515625 C 174.328125 441.445312 176.417969 439.332031 178.847656 437.996094 C 178.359375 438.242188 177.855469 438.476562 177.375 438.734375 C 177.042969 438.914062 176.714844 439.105469 176.378906 439.289062 Z M 407.03125 366.367188 C 407.03125 366.367188 407.027344 366.367188 407.023438 366.371094 C 407.191406 366.4375 407.351562 366.5 407.519531 366.570312 C 407.351562 366.503906 407.191406 366.433594 407.03125 366.367188 Z M 354.492188 528.820312 L 368.652344 534.652344 C 367.078125 540.671875 365.558594 546.574219 364.101562 552.292969 L 315.03125 529.796875 L 290.765625 518.675781 L 291.261719 516.769531 C 291.269531 516.75 291.695312 515.078125 292.472656 511.71875 L 292.917969 509.792969 C 296.652344 493.628906 301.859375 477.660156 306.820312 461.84375 C 307.402344 459.984375 307.972656 458.125 308.546875 456.261719 C 308.382812 456.066406 308.230469 455.855469 308.046875 455.699219 C 306.816406 454.664062 304.875 454.261719 302.8125 453.839844 C 300.824219 453.433594 298.761719 453.007812 297.015625 451.9375 C 295.109375 450.761719 293.730469 449.003906 292.402344 447.300781 C 291.183594 445.738281 290.03125 444.269531 288.742188 443.667969 C 287.054688 442.878906 284.878906 442.953125 282.78125 443.027344 C 280.820312 443.09375 278.816406 443.160156 277.058594 442.539062 C 274.796875 441.734375 273.417969 440.6875 272.394531 439.671875 C 272.582031 440.105469 272.808594 440.527344 273.160156 440.9375 C 273.429688 441.261719 274.519531 441.671875 275.3125 441.972656 C 277.109375 442.652344 279.339844 443.5 280.570312 445.546875 C 281.507812 447.113281 281.3125 448.96875 281.125 450.761719 C 280.988281 452.054688 280.847656 453.390625 281.203125 454.21875 C 281.433594 454.742188 282.390625 455.453125 283.234375 456.078125 C 284.753906 457.207031 286.476562 458.484375 287.097656 460.550781 C 287.636719 462.328125 287.015625 464.105469 286.417969 465.820312 C 286 467.019531 285.570312 468.261719 285.730469 469.078125 C 285.847656 469.671875 286.671875 470.585938 287.398438 471.394531 C 288.628906 472.765625 290.03125 474.320312 290.261719 476.386719 C 290.464844 478.238281 289.511719 479.953125 288.671875 481.464844 C 288.0625 482.570312 287.425781 483.714844 287.457031 484.523438 C 287.527344 486.539062 288.269531 488.867188 289.0625 491.335938 C 290.050781 494.429688 291.167969 497.9375 291.214844 501.675781 C 291.253906 504.625 290.398438 507.613281 289.5625 510.5 C 288.765625 513.277344 287.941406 516.152344 287.945312 518.914062 C 287.949219 521.417969 288.710938 524.035156 289.519531 526.808594 C 290.398438 529.820312 291.304688 532.933594 291.289062 536.152344 C 291.273438 539.371094 290.335938 542.46875 289.433594 545.46875 C 288.597656 548.238281 287.808594 550.859375 287.789062 553.367188 C 287.757812 556.148438 288.570312 559.050781 289.359375 561.855469 C 290.171875 564.730469 291.003906 567.703125 290.96875 570.640625 C 290.921875 574.316406 289.84375 577.785156 288.890625 580.847656 C 288.101562 583.367188 287.363281 585.753906 287.328125 587.808594 C 287.25 592.867188 288.015625 594.679688 288.828125 596.601562 C 289.582031 598.378906 290.351562 600.246094 290.398438 604.042969 C 290.398438 604.046875 290.398438 604.046875 290.398438 604.050781 C 290.128906 604.074219 289.855469 604.089844 289.585938 604.109375 C 288.691406 604.183594 287.800781 604.253906 286.898438 604.3125 C 286.75 604.324219 286.605469 604.339844 286.453125 604.347656 C 286.453125 604.34375 286.453125 604.339844 286.453125 604.335938 C 286.445312 601.175781 285.878906 599.71875 285.214844 598.132812 C 284.320312 596.023438 283.308594 593.632812 283.402344 587.742188 C 283.449219 585.125 284.269531 582.484375 285.140625 579.683594 C 286.058594 576.742188 287 573.699219 287.042969 570.59375 C 287.078125 568.222656 286.347656 565.648438 285.585938 562.921875 C 284.722656 559.847656 283.824219 556.675781 283.863281 553.332031 C 283.894531 550.265625 284.804688 547.253906 285.679688 544.339844 C 286.542969 541.480469 287.355469 538.78125 287.367188 536.136719 C 287.386719 533.492188 286.59375 530.78125 285.753906 527.914062 C 284.902344 525 284.023438 521.988281 284.019531 518.929688 C 284.011719 515.613281 284.921875 512.464844 285.792969 509.421875 C 286.578125 506.6875 287.324219 504.105469 287.289062 501.726562 C 287.253906 498.578125 286.269531 495.503906 285.324219 492.535156 C 284.449219 489.804688 283.621094 487.226562 283.53125 484.667969 C 283.46875 482.769531 284.410156 481.070312 285.242188 479.566406 C 285.792969 478.566406 286.417969 477.429688 286.355469 476.820312 C 286.265625 476.011719 285.355469 475.003906 284.476562 474.027344 C 283.355469 472.789062 282.203125 471.5 281.875 469.84375 C 281.507812 467.980469 282.144531 466.148438 282.710938 464.53125 C 283.066406 463.515625 283.507812 462.246094 283.339844 461.691406 C 283.09375 460.875 281.976562 460.042969 280.894531 459.242188 C 279.59375 458.273438 278.246094 457.273438 277.597656 455.78125 C 276.832031 454.007812 277.039062 452.070312 277.222656 450.359375 C 277.328125 449.3125 277.464844 448.015625 277.207031 447.578125 C 276.679688 446.699219 275.28125 446.171875 273.925781 445.660156 C 272.53125 445.136719 271.09375 444.589844 270.160156 443.488281 C 269.144531 442.292969 268.636719 441.078125 268.328125 439.945312 L 267.355469 440.707031 L 266.386719 439.945312 C 266.078125 441.078125 265.566406 442.289062 264.5625 443.480469 C 263.632812 444.582031 262.191406 445.121094 260.792969 445.648438 C 259.445312 446.15625 258.046875 446.683594 257.523438 447.558594 C 257.257812 447.996094 257.394531 449.296875 257.503906 450.339844 C 257.683594 452.050781 257.886719 453.992188 257.121094 455.765625 C 256.476562 457.261719 255.128906 458.261719 253.824219 459.226562 C 252.742188 460.03125 251.625 460.859375 251.375 461.675781 C 251.210938 462.234375 251.648438 463.503906 252.007812 464.523438 C 252.574219 466.136719 253.207031 467.972656 252.84375 469.835938 C 252.515625 471.496094 251.355469 472.78125 250.242188 474.023438 C 249.359375 475 248.449219 476.015625 248.359375 476.824219 C 248.292969 477.429688 248.917969 478.566406 249.472656 479.566406 C 250.304688 481.070312 251.246094 482.769531 251.179688 484.671875 C 251.089844 487.226562 250.269531 489.804688 249.394531 492.535156 C 248.441406 495.503906 247.464844 498.574219 247.425781 501.71875 C 247.394531 504.097656 248.136719 506.6875 248.925781 509.425781 C 249.796875 512.46875 250.699219 515.621094 250.695312 518.945312 C 250.6875 522.003906 249.808594 525.019531 248.960938 527.933594 C 248.121094 530.804688 247.332031 533.515625 247.34375 536.171875 C 247.359375 538.808594 248.175781 541.503906 249.035156 544.355469 C 249.914062 547.265625 250.820312 550.277344 250.855469 553.34375 C 250.886719 556.679688 250 559.851562 249.136719 562.917969 C 248.367188 565.636719 247.640625 568.210938 247.675781 570.574219 C 247.714844 573.683594 248.660156 576.722656 249.574219 579.660156 C 250.445312 582.460938 251.273438 585.105469 251.3125 587.726562 C 251.410156 593.625 250.402344 596.019531 249.503906 598.128906 C 248.835938 599.714844 248.273438 601.175781 248.265625 604.34375 C 248.265625 604.347656 248.265625 604.351562 248.265625 604.355469 C 248.046875 604.339844 247.835938 604.320312 247.625 604.308594 C 246.902344 604.253906 246.183594 604.199219 245.46875 604.140625 C 245.089844 604.109375 244.703125 604.089844 244.324219 604.054688 C 244.324219 604.050781 244.324219 604.046875 244.324219 604.042969 C 244.371094 600.25 245.136719 598.382812 245.894531 596.597656 C 246.707031 594.675781 247.472656 592.855469 247.390625 587.789062 C 247.355469 585.734375 246.617188 583.347656 245.828125 580.820312 C 244.878906 577.761719 243.800781 574.300781 243.753906 570.628906 C 243.714844 567.691406 244.550781 564.71875 245.359375 561.84375 C 246.144531 559.046875 246.964844 556.152344 246.9375 553.378906 C 246.910156 550.871094 246.117188 548.257812 245.28125 545.484375 C 244.378906 542.492188 243.445312 539.390625 243.425781 536.179688 C 243.410156 532.953125 244.320312 529.835938 245.199219 526.824219 C 246.007812 524.050781 246.769531 521.429688 246.773438 518.925781 C 246.777344 516.160156 245.953125 513.28125 245.152344 510.5 C 244.324219 507.609375 243.464844 504.617188 243.503906 501.660156 C 243.550781 497.925781 244.671875 494.417969 245.664062 491.324219 C 246.449219 488.863281 247.195312 486.535156 247.265625 484.519531 C 247.292969 483.710938 246.65625 482.566406 246.046875 481.460938 C 245.210938 479.949219 244.257812 478.234375 244.460938 476.382812 C 244.691406 474.316406 246.09375 472.757812 247.328125 471.382812 C 248.050781 470.574219 248.878906 469.660156 249 469.0625 C 249.160156 468.246094 248.722656 467 248.304688 465.800781 C 247.707031 464.082031 247.089844 462.304688 247.625 460.523438 C 248.246094 458.464844 249.972656 457.183594 251.488281 456.054688 C 252.339844 455.425781 253.296875 454.71875 253.523438 454.191406 C 253.886719 453.359375 253.746094 452.023438 253.609375 450.734375 C 253.421875 448.941406 253.226562 447.085938 254.167969 445.519531 C 255.394531 443.472656 257.628906 442.625 259.421875 441.953125 C 260.214844 441.652344 261.300781 441.246094 261.574219 440.921875 C 261.910156 440.519531 262.136719 440.101562 262.320312 439.679688 C 261.304688 440.6875 259.925781 441.722656 257.683594 442.519531 C 255.933594 443.144531 253.914062 443.074219 251.953125 443.011719 C 249.851562 442.941406 247.671875 442.867188 245.980469 443.65625 C 244.6875 444.261719 243.542969 445.734375 242.320312 447.292969 C 240.988281 448.996094 239.609375 450.753906 237.695312 451.929688 C 235.953125 453.003906 233.890625 453.433594 231.902344 453.839844 C 229.84375 454.265625 227.898438 454.664062 226.671875 455.699219 C 225.449219 456.734375 224.753906 458.621094 224.015625 460.613281 C 223.339844 462.453125 222.640625 464.359375 221.40625 465.925781 C 220.234375 467.421875 218.636719 468.53125 217.097656 469.605469 C 215.292969 470.863281 213.589844 472.050781 212.945312 473.578125 C 212.339844 475.015625 212.679688 477.027344 213.042969 479.164062 C 213.363281 481.023438 213.691406 482.949219 213.488281 484.894531 C 213.238281 487.332031 212.339844 489.753906 211.398438 492.324219 C 210.292969 495.335938 209.140625 498.445312 209.03125 501.683594 C 208.941406 504.101562 209.667969 506.742188 210.433594 509.535156 C 211.261719 512.542969 212.109375 515.652344 212.097656 518.917969 C 212.085938 521.945312 211.226562 524.929688 210.394531 527.824219 C 209.558594 530.726562 208.773438 533.464844 208.8125 536.140625 C 208.847656 538.800781 209.710938 541.507812 210.621094 544.367188 C 211.527344 547.25 212.476562 550.222656 212.5625 553.261719 C 212.65625 556.578125 211.835938 559.75 211.046875 562.820312 C 210.332031 565.578125 209.660156 568.183594 209.753906 570.5625 C 209.867188 573.679688 210.90625 576.707031 211.910156 579.636719 C 212.851562 582.394531 213.746094 585 213.871094 587.601562 C 214.148438 593.46875 213.230469 595.898438 212.410156 598.039062 C 212.269531 598.398438 212.140625 598.75 212.019531 599.113281 C 211.992188 599.109375 211.96875 599.101562 211.941406 599.097656 C 210.683594 598.800781 209.429688 598.507812 208.191406 598.195312 C 208.1875 598.191406 208.183594 598.191406 208.179688 598.191406 C 208.359375 597.640625 208.546875 597.140625 208.742188 596.636719 C 209.492188 594.679688 210.191406 592.839844 209.953125 587.789062 C 209.855469 585.746094 209.050781 583.394531 208.195312 580.90625 C 207.15625 577.859375 205.972656 574.40625 205.832031 570.710938 C 205.71875 567.757812 206.496094 564.75 207.246094 561.835938 C 207.96875 559.035156 208.71875 556.136719 208.640625 553.375 C 208.570312 550.886719 207.75 548.300781 206.878906 545.558594 C 205.921875 542.554688 204.933594 539.441406 204.890625 536.199219 C 204.847656 532.941406 205.75 529.785156 206.628906 526.734375 C 207.417969 523.980469 208.164062 521.382812 208.179688 518.902344 C 208.1875 516.175781 207.410156 513.328125 206.65625 510.582031 C 205.84375 507.621094 205.011719 504.5625 205.113281 501.550781 C 205.25 497.679688 206.5625 494.113281 207.722656 490.964844 C 208.578125 488.640625 209.386719 486.441406 209.589844 484.492188 C 209.734375 483.082031 209.460938 481.5 209.175781 479.824219 C 208.734375 477.226562 208.277344 474.542969 209.328125 472.050781 C 210.417969 469.472656 212.773438 467.828125 214.855469 466.378906 C 216.222656 465.429688 217.515625 464.535156 218.320312 463.5 C 219.171875 462.414062 219.738281 460.878906 220.335938 459.25 C 221.21875 456.867188 222.128906 454.398438 224.140625 452.691406 C 226.132812 451.011719 228.667969 450.488281 231.117188 449.984375 C 232.847656 449.625 234.484375 449.289062 235.640625 448.578125 C 236.953125 447.773438 238.058594 446.359375 239.230469 444.867188 C 239.925781 443.976562 240.636719 443.082031 241.417969 442.269531 C 240.578125 442.339844 239.738281 442.460938 238.945312 442.699219 C 236.984375 443.292969 235.089844 444.789062 233.082031 446.371094 C 231.015625 448.003906 228.875 449.6875 226.339844 450.675781 C 223.976562 451.59375 221.398438 451.796875 218.894531 451.996094 C 216.230469 452.210938 213.710938 452.410156 211.734375 453.433594 C 209.585938 454.546875 207.914062 456.636719 206.15625 458.847656 C 204.71875 460.648438 203.238281 462.507812 201.40625 463.886719 C 199.5625 465.277344 197.445312 466.246094 195.410156 467.179688 C 192.777344 468.386719 190.300781 469.523438 188.972656 471.328125 C 187.300781 473.613281 187.199219 476.785156 187.082031 480.140625 C 187.027344 481.769531 186.96875 483.453125 186.726562 485.085938 C 186.367188 487.449219 185.417969 489.773438 184.410156 492.234375 C 183.167969 495.253906 181.890625 498.382812 181.714844 501.671875 C 181.59375 504.105469 182.316406 506.78125 183.082031 509.613281 C 183.890625 512.601562 184.730469 515.691406 184.707031 518.925781 C 184.6875 521.933594 183.824219 524.902344 182.992188 527.773438 C 182.144531 530.699219 181.34375 533.460938 181.394531 536.15625 C 181.453125 538.820312 182.355469 541.53125 183.316406 544.394531 C 184.269531 547.253906 185.261719 550.207031 185.386719 553.238281 C 185.515625 556.546875 184.734375 559.726562 183.96875 562.800781 C 183.277344 565.578125 182.625 568.207031 182.761719 570.585938 C 182.9375 573.703125 184.054688 576.714844 185.132812 579.628906 C 186.148438 582.363281 187.105469 584.945312 187.289062 587.546875 C 187.394531 589.023438 187.410156 590.28125 187.375 591.375 C 186.039062 590.824219 184.742188 590.25 183.460938 589.667969 C 183.441406 589.101562 183.417969 588.496094 183.371094 587.824219 C 183.234375 585.789062 182.367188 583.464844 181.457031 580.996094 C 180.332031 577.960938 179.058594 574.519531 178.84375 570.8125 C 178.675781 567.839844 179.429688 564.796875 180.15625 561.855469 C 180.855469 559.050781 181.570312 556.148438 181.460938 553.402344 C 181.359375 550.933594 180.496094 548.363281 179.59375 545.648438 C 178.582031 542.628906 177.535156 539.511719 177.46875 536.246094 C 177.402344 532.949219 178.328125 529.765625 179.21875 526.6875 C 180.015625 523.953125 180.765625 521.367188 180.785156 518.902344 C 180.804688 516.207031 180.039062 513.382812 179.296875 510.648438 C 178.484375 507.640625 177.648438 504.535156 177.800781 501.476562 C 178.003906 497.519531 179.476562 493.921875 180.773438 490.753906 C 181.6875 488.515625 182.554688 486.40625 182.84375 484.507812 C 183.058594 483.105469 183.105469 481.605469 183.15625 480.015625 C 183.285156 476.214844 183.414062 472.28125 185.800781 469.019531 C 187.730469 466.382812 190.800781 464.980469 193.773438 463.621094 C 195.617188 462.773438 197.542969 461.898438 199.039062 460.761719 C 200.476562 459.679688 201.742188 458.09375 203.082031 456.414062 C 205.019531 453.976562 207.03125 451.457031 209.925781 449.960938 C 212.601562 448.574219 215.636719 448.332031 218.574219 448.097656 C 220.894531 447.914062 223.082031 447.738281 224.910156 447.03125 C 226.898438 446.257812 228.71875 444.824219 230.640625 443.304688 C 232.84375 441.566406 235.128906 439.765625 237.800781 438.960938 C 240.984375 437.992188 244.28125 438.257812 247.195312 438.5 C 249.355469 438.675781 251.398438 438.84375 252.972656 438.46875 C 255.40625 437.898438 256.808594 437.144531 257.898438 436.347656 C 256.085938 437.152344 253.679688 437.839844 249.671875 438.015625 C 246.980469 438.164062 244.261719 437.296875 241.359375 436.417969 C 238.117188 435.429688 234.757812 434.414062 231.558594 434.816406 C 229.019531 435.136719 226.429688 436.707031 223.691406 438.367188 C 220.933594 440.035156 218.09375 441.757812 214.890625 442.484375 C 211.957031 443.148438 208.832031 442.859375 205.808594 442.589844 C 202.4375 442.285156 199.253906 441.988281 196.617188 442.972656 C 193.855469 444.003906 191.605469 446.417969 189.222656 448.980469 C 187.273438 451.085938 185.253906 453.253906 182.824219 454.734375 C 180.460938 456.167969 177.722656 456.996094 175.074219 457.792969 C 171.628906 458.835938 168.367188 459.824219 166.371094 461.976562 C 164.308594 464.203125 163.636719 467.664062 162.925781 471.328125 C 162.4375 473.859375 161.933594 476.472656 160.925781 478.875 C 159.953125 481.207031 158.199219 483.242188 156.511719 485.207031 C 154.464844 487.585938 152.53125 489.835938 152.015625 492.390625 C 151.574219 494.613281 152.351562 497.257812 153.175781 500.058594 C 153.988281 502.828125 154.828125 505.691406 154.625 508.582031 C 154.421875 511.441406 153.15625 514.148438 151.925781 516.757812 C 150.691406 519.402344 149.519531 521.894531 149.566406 524.234375 C 149.613281 526.613281 150.871094 529.074219 152.199219 531.683594 C 153.511719 534.261719 154.878906 536.933594 155.125 539.773438 C 155.398438 542.910156 154.476562 545.945312 153.574219 548.878906 C 152.769531 551.507812 152.011719 553.984375 152.3125 556.042969 C 152.714844 558.800781 154.4375 561.363281 156.105469 563.847656 C 157.679688 566.1875 159.160156 568.402344 159.65625 570.835938 C 159.988281 572.484375 160.195312 574.089844 160.324219 575.628906 C 160.324219 575.632812 160.324219 575.632812 160.324219 575.632812 C 160.316406 575.625 160.3125 575.621094 160.304688 575.613281 C 158.75 574.339844 157.253906 573.023438 155.816406 571.660156 C 155.808594 571.648438 155.808594 571.628906 155.804688 571.613281 C 155.464844 569.941406 154.1875 568.042969 152.84375 566.039062 C 151.019531 563.324219 148.953125 560.25 148.421875 556.605469 C 147.992188 553.675781 148.917969 550.652344 149.816406 547.726562 C 150.601562 545.152344 151.417969 542.488281 151.207031 540.117188 C 151.027344 538.039062 149.894531 535.816406 148.691406 533.464844 C 147.222656 530.578125 145.703125 527.59375 145.636719 524.308594 C 145.574219 521.054688 147 518.019531 148.367188 515.089844 C 149.492188 512.695312 150.550781 510.433594 150.699219 508.300781 C 150.855469 506.117188 150.144531 503.710938 149.398438 501.167969 C 148.476562 498.03125 147.523438 494.789062 148.160156 491.613281 C 148.878906 488.042969 151.238281 485.300781 153.527344 482.636719 C 155.085938 480.820312 156.558594 479.109375 157.296875 477.347656 C 158.144531 475.320312 158.59375 473.015625 159.066406 470.574219 C 159.851562 466.527344 160.65625 462.339844 163.492188 459.292969 C 166.207031 456.363281 170.136719 455.175781 173.9375 454.023438 C 176.464844 453.261719 178.847656 452.542969 180.78125 451.367188 C 182.746094 450.171875 184.488281 448.289062 186.34375 446.296875 C 188.9375 443.511719 191.613281 440.628906 195.246094 439.28125 C 198.71875 437.992188 202.503906 438.335938 206.160156 438.667969 C 209.003906 438.925781 211.6875 439.167969 214.015625 438.640625 C 216.597656 438.058594 219.167969 436.496094 221.65625 434.996094 C 224.632812 433.195312 227.707031 431.332031 231.070312 430.910156 C 235.117188 430.414062 239.035156 431.59375 242.5 432.648438 C 245.070312 433.425781 247.449219 434.160156 249.503906 434.078125 C 254.230469 433.867188 256.144531 432.929688 257.976562 431.898438 C 255.800781 429.828125 253.570312 428.046875 251.265625 427.414062 C 248.492188 426.648438 245.195312 427.53125 241.699219 428.46875 C 238.933594 429.214844 236.070312 429.980469 233.195312 429.996094 C 230.265625 429.988281 227.390625 429.171875 224.570312 428.359375 C 221.183594 427.386719 217.964844 426.453125 215.035156 426.988281 C 212.253906 427.488281 209.640625 429.347656 206.871094 431.320312 C 204.324219 433.128906 201.695312 434.996094 198.738281 435.894531 C 195.53125 436.863281 192.125 436.738281 188.839844 436.632812 C 185.613281 436.523438 182.570312 436.410156 180.183594 437.363281 C 179.980469 437.445312 179.785156 437.542969 179.585938 437.640625 C 181.964844 436.441406 184.398438 435.296875 186.925781 434.253906 C 187.039062 434.207031 187.15625 434.164062 187.269531 434.117188 C 188.4375 433.640625 189.605469 433.167969 190.800781 432.722656 C 190.832031 432.722656 190.863281 432.722656 190.894531 432.722656 C 193.238281 432.769531 195.566406 432.671875 197.597656 432.054688 C 199.597656 431.449219 201.542969 430.113281 203.550781 428.6875 C 203.667969 428.605469 203.785156 428.527344 203.902344 428.445312 C 210.597656 426.671875 217.648438 425.132812 224.980469 424.074219 C 225.210938 424.140625 225.4375 423.882812 225.664062 423.945312 C 225.96875 424.035156 226.265625 424.085938 226.566406 424.15625 C 228.878906 424.699219 231.078125 424.792969 233.125 424.792969 C 233.140625 424.792969 233.160156 424.792969 233.179688 424.792969 C 235.546875 424.792969 238.042969 424.75 240.683594 424.035156 C 244.527344 423.003906 248.496094 422.570312 252.308594 423.621094 C 255.871094 424.597656 258.902344 427.226562 261.773438 430.089844 C 262.480469 429.863281 263.277344 429.675781 264.203125 429.546875 C 263.933594 429.332031 263.621094 429.113281 263.296875 428.902344 C 262.671875 428.492188 262.054688 428.066406 261.535156 427.570312 C 260.945312 427 260.496094 426.328125 260.101562 425.734375 C 259.6875 425.113281 259.292969 424.527344 258.882812 424.269531 C 258.507812 424.03125 257.851562 423.910156 257.152344 423.785156 C 256.378906 423.648438 255.5 423.492188 254.667969 423.109375 C 253.964844 422.785156 253.394531 422.347656 252.863281 421.921875 C 255.820312 421.808594 258.804688 421.734375 261.816406 421.6875 C 262.433594 422.277344 262.945312 422.921875 263.359375 423.542969 C 263.675781 424.011719 263.976562 424.457031 264.265625 424.742188 C 264.613281 425.078125 265.035156 425.34375 265.449219 425.617188 C 266.082031 426.03125 266.765625 426.484375 267.351562 427.09375 C 267.933594 426.476562 268.625 426.027344 269.253906 425.609375 C 269.671875 425.335938 270.097656 425.070312 270.4375 424.738281 C 270.730469 424.457031 271.027344 424.015625 271.339844 423.542969 C 271.761719 422.921875 272.273438 422.28125 272.886719 421.6875 C 275.902344 421.730469 278.890625 421.804688 281.84375 421.921875 C 281.3125 422.351562 280.738281 422.785156 280.039062 423.109375 C 279.199219 423.492188 278.324219 423.652344 277.546875 423.789062 C 276.851562 423.910156 276.191406 424.03125 275.816406 424.273438 C 275.40625 424.527344 275.019531 425.113281 274.601562 425.734375 C 274.207031 426.324219 273.761719 426.992188 273.167969 427.566406 C 272.652344 428.066406 272.039062 428.484375 271.417969 428.894531 C 271.085938 429.113281 270.765625 429.328125 270.5 429.546875 C 271.429688 429.675781 272.226562 429.863281 272.929688 430.085938 C 275.804688 427.226562 278.835938 424.597656 282.390625 423.625 C 286.199219 422.574219 290.167969 423.640625 294.011719 424.675781 C 296.652344 425.382812 299.148438 426.054688 301.523438 426.0625 C 303.886719 426.257812 306.363281 425.347656 309.03125 424.582031 C 309.261719 424.515625 309.488281 424.457031 309.71875 424.390625 C 312.484375 424.785156 315.195312 425.246094 317.875 425.742188 C 317.878906 425.734375 317.878906 425.730469 317.882812 425.722656 C 319.683594 420.039062 321.550781 414.378906 323.558594 408.777344 C 327.882812 396.691406 330.472656 384.628906 338.539062 374.222656 C 345.59375 365.125 355.476562 358.980469 366.980469 357.664062 C 369.96875 357.324219 373.429688 357.082031 376.839844 357.140625 C 376.851562 357.121094 376.863281 357.101562 376.875 357.082031 L 376.894531 357.140625 C 379.808594 357.195312 382.679688 357.472656 385.1875 358.128906 C 390.894531 359.632812 396.199219 362.101562 401.640625 364.308594 C 403.191406 364.9375 405.140625 365.59375 407.023438 366.378906 C 400.621094 370.585938 395.289062 376.042969 391.402344 382.523438 C 385.554688 392.382812 382.527344 404.050781 379.582031 415.363281 C 378.722656 418.742188 377.894531 421.929688 376.992188 425.03125 L 376.519531 426.679688 C 368.199219 455.632812 359.597656 485.613281 353.941406 515.507812 L 353.550781 517.433594 C 353.121094 519.75 352.804688 521.28125 352.683594 521.953125 L 352.570312 522.460938 L 352.136719 524.382812 L 351.46875 527.566406 Z M 310.078125 451.210938 C 309.496094 451.0625 308.921875 450.890625 308.359375 450.671875 C 305.824219 449.683594 303.6875 448 301.621094 446.367188 C 299.617188 444.789062 297.726562 443.292969 295.765625 442.699219 C 294.980469 442.464844 294.144531 442.34375 293.300781 442.273438 C 294.082031 443.085938 294.796875 443.980469 295.488281 444.871094 C 296.65625 446.367188 297.757812 447.773438 299.066406 448.578125 C 300.222656 449.289062 301.863281 449.625 303.597656 449.984375 C 305.742188 450.425781 307.953125 450.882812 309.804688 452.113281 C 309.894531 451.816406 309.988281 451.511719 310.078125 451.210938 Z M 313.515625 439.835938 C 312.675781 439.355469 311.839844 438.859375 311.019531 438.359375 C 308.28125 436.699219 305.699219 435.128906 303.167969 434.8125 C 299.972656 434.40625 296.625 435.421875 293.390625 436.410156 C 290.488281 437.289062 287.738281 438.105469 285.078125 438.003906 C 281.011719 437.824219 278.589844 437.121094 276.765625 436.304688 C 277.867188 437.109375 279.273438 437.878906 281.742188 438.460938 C 283.320312 438.828125 285.359375 438.667969 287.519531 438.488281 C 290.433594 438.253906 293.722656 437.988281 296.902344 438.945312 C 299.574219 439.753906 301.855469 441.550781 304.058594 443.289062 C 305.976562 444.804688 307.796875 446.238281 309.78125 447.011719 C 310.238281 447.1875 310.71875 447.332031 311.214844 447.449219 C 311.984375 444.914062 312.75 442.375 313.515625 439.835938 Z M 317.527344 426.824219 C 315.191406 426.882812 312.707031 427.597656 310.117188 428.34375 C 307.304688 429.15625 304.382812 429.976562 301.503906 429.980469 C 298.621094 429.964844 295.761719 429.199219 292.992188 428.453125 C 289.503906 427.511719 286.199219 426.628906 283.433594 427.394531 C 281.132812 428.027344 278.914062 429.804688 276.730469 431.871094 C 278.574219 432.910156 280.492188 433.855469 285.242188 434.0625 C 287.199219 434.148438 289.671875 433.414062 292.242188 432.632812 C 295.699219 431.582031 299.617188 430.386719 303.65625 430.894531 C 307.011719 431.320312 310.085938 433.179688 313.050781 434.980469 C 313.59375 435.308594 314.140625 435.636719 314.6875 435.957031 C 315.621094 432.910156 316.566406 429.863281 317.527344 426.824219 Z M 592.726562 369.15625 C 592.410156 368.464844 592.09375 367.777344 591.765625 367.09375 C 590.550781 364.585938 589.253906 362.117188 587.878906 359.679688 C 585.910156 356.179688 583.785156 352.757812 581.472656 349.441406 C 570.6875 333.984375 556.066406 320.742188 536.703125 311.972656 C 531.539062 309.367188 526.1875 307.226562 520.726562 305.640625 C 519.742188 305.351562 518.753906 305.109375 517.761719 304.855469 C 516.082031 304.417969 514.398438 304.027344 512.707031 303.683594 C 508.800781 302.878906 504.863281 302.300781 500.902344 301.933594 C 496.761719 305.363281 492.453125 308.179688 488.046875 310.382812 C 488.214844 311.476562 488.1875 312.617188 488.121094 313.71875 C 487.96875 316.257812 487.710938 318.789062 487.347656 321.304688 C 486.972656 323.960938 486.484375 326.605469 485.878906 329.222656 C 485.257812 331.917969 484.511719 334.617188 483.046875 337.035156 C 481.101562 340.222656 477.886719 342.816406 474.0625 344.015625 C 470.234375 345.203125 465.820312 344.917969 462.332031 343.070312 C 456.472656 339.960938 454.253906 333.355469 453.550781 327.285156 C 453.132812 323.675781 453.089844 320.039062 453.398438 316.421875 C 453.339844 316.371094 453.273438 316.320312 453.214844 316.269531 C 447.5 315.453125 442.09375 313.753906 437.226562 311.304688 C 419.324219 317.730469 402.183594 327.25 388.730469 341.664062 C 386.417969 344.144531 384.269531 346.753906 382.21875 349.4375 C 382.035156 349.679688 381.835938 349.917969 381.652344 350.164062 L 473.882812 349.457031 C 475.640625 349.441406 477.496094 350.816406 478 352.503906 L 491.78125 398.769531 C 497.914062 401.398438 503.25 405.683594 507.75 410.621094 L 512.226562 407.261719 L 515.363281 404.902344 L 517.71875 408.042969 C 530.441406 424.78125 546.894531 443.285156 551.375 444.34375 C 553.09375 444.226562 554.125 443.476562 554.867188 441.867188 C 560.640625 429.296875 543.125 384.035156 530.328125 367.453125 L 529.425781 366.269531 L 533.425781 364.527344 C 533.433594 364.542969 533.445312 364.554688 533.457031 364.566406 L 533.425781 365.066406 C 543.363281 377.917969 559.015625 413.292969 559.847656 433.542969 C 560.089844 441.742188 557.765625 447.210938 551.40625 447.210938 L 551.289062 447.210938 C 543.277344 447.210938 514.578125 409.867188 514.578125 409.867188 L 510.164062 413.234375 C 510.257812 413.332031 510.34375 413.425781 510.4375 413.519531 L 498.785156 422.265625 L 509.832031 459.339844 C 510.332031 461.011719 509.328125 462.386719 507.601562 462.433594 C 511.992188 477.527344 520.296875 505.625 520.296875 505.625 L 520.289062 505.664062 C 520.757812 505.902344 521.226562 506.136719 521.695312 506.363281 C 521.882812 506.460938 522.070312 506.554688 522.257812 506.648438 C 523.261719 507.128906 524.273438 507.582031 525.292969 508.015625 C 525.648438 508.171875 526.003906 508.320312 526.363281 508.464844 C 527.195312 508.804688 528.03125 509.132812 528.867188 509.445312 C 529.128906 509.542969 529.386719 509.644531 529.648438 509.742188 C 530.664062 510.105469 531.6875 510.4375 532.71875 510.757812 C 533.113281 510.882812 533.511719 510.996094 533.90625 511.117188 C 534.714844 511.351562 535.523438 511.570312 536.339844 511.777344 C 536.652344 511.859375 536.964844 511.945312 537.28125 512.019531 C 538.3125 512.265625 539.347656 512.484375 540.386719 512.683594 C 540.804688 512.761719 541.21875 512.835938 541.640625 512.90625 C 542.441406 513.046875 543.242188 513.167969 544.046875 513.277344 C 544.386719 513.324219 544.726562 513.378906 545.066406 513.417969 C 546.113281 513.546875 547.167969 513.640625 548.21875 513.714844 C 548.628906 513.746094 549.039062 513.765625 549.449219 513.789062 C 550.28125 513.828125 551.109375 513.855469 551.945312 513.867188 C 552.1875 513.871094 552.429688 513.890625 552.675781 513.890625 C 552.773438 513.890625 552.871094 513.882812 552.972656 513.882812 C 553.085938 513.882812 553.203125 513.878906 553.316406 513.875 C 554.074219 513.867188 554.832031 513.851562 555.589844 513.816406 C 555.824219 513.804688 556.058594 513.78125 556.292969 513.769531 C 556.925781 513.734375 557.550781 513.691406 558.183594 513.636719 C 558.6875 513.59375 559.191406 513.527344 559.691406 513.46875 C 560.050781 513.425781 560.410156 513.390625 560.773438 513.34375 C 561.621094 513.226562 562.472656 513.09375 563.324219 512.9375 C 563.339844 512.933594 563.355469 512.933594 563.367188 512.929688 C 565.582031 512.527344 567.78125 511.976562 569.964844 511.300781 C 571.273438 510.898438 572.582031 510.464844 573.875 509.960938 C 575.878906 509.1875 577.75 508.269531 579.519531 507.265625 C 580.703125 506.601562 581.851562 505.898438 582.945312 505.152344 C 582.550781 506.988281 582.117188 508.792969 581.613281 510.59375 C 579.605469 511.769531 577.488281 512.753906 575.292969 513.621094 C 568.183594 516.410156 560.566406 517.824219 552.675781 517.824219 C 541.578125 517.824219 530.316406 515 519.882812 509.882812 L 519.277344 516.011719 C 519.277344 516.011719 518.394531 513.027344 517.039062 508.433594 C 517.035156 508.429688 517.027344 508.425781 517.023438 508.421875 C 516.484375 506.609375 515.941406 504.777344 515.394531 502.925781 C 515.402344 502.929688 515.410156 502.9375 515.421875 502.941406 C 515.414062 502.921875 515.410156 502.90625 515.402344 502.886719 C 511.574219 489.917969 505.957031 470.847656 503.53125 462.472656 L 503.519531 462.472656 C 496.59375 438.617188 490.550781 417.207031 488.1875 407.226562 C 481.269531 378.046875 463.660156 366.882812 463.660156 366.882812 C 447.488281 358.0625 426.714844 359.101562 411.066406 368.480469 C 410.921875 368.378906 410.761719 368.289062 410.617188 368.1875 C 410.761719 368.289062 410.914062 368.378906 411.046875 368.484375 C 411.015625 368.503906 410.988281 368.527344 410.957031 368.546875 C 410.3125 368.933594 409.675781 369.335938 409.050781 369.753906 C 408.839844 369.890625 408.632812 370.023438 408.425781 370.164062 C 407.894531 370.53125 407.375 370.910156 406.859375 371.296875 C 406.644531 371.457031 406.425781 371.605469 406.21875 371.769531 C 405.527344 372.304688 404.847656 372.859375 404.183594 373.433594 C 404.03125 373.5625 403.890625 373.695312 403.746094 373.828125 C 403.203125 374.308594 402.667969 374.796875 402.148438 375.304688 C 402 375.449219 401.855469 375.597656 401.710938 375.746094 C 401.1875 376.269531 400.671875 376.800781 400.171875 377.351562 C 400.0625 377.476562 399.949219 377.601562 399.839844 377.726562 C 399.304688 378.324219 398.785156 378.941406 398.28125 379.570312 C 398.207031 379.664062 398.132812 379.753906 398.058594 379.847656 C 397.523438 380.527344 397.007812 381.222656 396.507812 381.9375 C 396.460938 382.003906 396.410156 382.070312 396.367188 382.132812 C 395.890625 382.828125 395.433594 383.53125 394.996094 384.25 C 394.929688 384.355469 394.863281 384.449219 394.800781 384.554688 C 387.492188 396.734375 384.667969 412.566406 380.78125 426.121094 C 372.546875 454.839844 364.082031 484.1875 358.347656 513.554688 C 358.171875 514.445312 357.976562 515.335938 357.808594 516.226562 L 357.441406 518.167969 C 357.207031 519.386719 357.015625 520.378906 356.863281 521.15625 C 356.808594 521.429688 356.757812 521.675781 356.710938 521.894531 C 356.53125 522.796875 356.429688 523.253906 356.425781 523.265625 L 356.058594 524.960938 L 356.003906 525.210938 L 369.667969 530.835938 C 369.671875 530.832031 369.671875 530.824219 369.671875 530.820312 L 426.617188 554.269531 C 426.617188 554.273438 426.613281 554.277344 426.613281 554.277344 L 435.121094 557.78125 L 441.167969 538.804688 L 454.675781 474.257812 C 454.5625 474.890625 456.914062 482.699219 456.914062 482.699219 L 445.015625 539.585938 L 444.976562 539.820312 L 444.898438 539.980469 L 438.855469 558.953125 L 437.558594 563 L 433.632812 561.390625 L 425.28125 557.953125 C 420.378906 571.460938 415.703125 584.523438 411.566406 596.816406 C 424.910156 597.503906 435.0625 594.988281 435.0625 594.988281 C 435.0625 594.988281 446.464844 600.023438 449.09375 600.984375 C 455.453125 603.304688 461.863281 604.519531 468.621094 604.855469 C 483.242188 605.582031 498.339844 602.6875 512.261719 598.351562 C 522.378906 595.199219 531.78125 590.398438 539.894531 583.941406 C 540.699219 583.300781 541.488281 582.648438 542.265625 581.976562 C 547.058594 577.828125 551.355469 573.0625 555 567.65625 C 559.773438 560.578125 564.46875 552.101562 568.664062 543.152344 C 575.417969 531.792969 579.960938 518.660156 582.980469 505.117188 C 599.707031 493.589844 605.554688 472.21875 607.105469 451.953125 C 607.273438 449.738281 607.398438 447.535156 607.472656 445.359375 C 608.089844 427.457031 605.90625 406.957031 599.679688 387.128906 C 597.746094 381.046875 595.449219 375.023438 592.726562 369.15625 Z M 613.085938 269.566406 C 613.542969 270 614.058594 270.398438 614.632812 270.75 C 640.488281 268.871094 710.621094 269.410156 737.015625 270.996094 C 740.402344 268.296875 741.578125 261.804688 739.425781 258.3125 C 738.828125 257.347656 736.851562 255.574219 736.851562 255.574219 L 615.234375 255.574219 C 615.234375 255.574219 612.34375 257.992188 611.527344 259.25 C 610.074219 261.507812 609.996094 264.480469 611.214844 267.023438 C 611.660156 267.953125 612.292969 268.804688 613.085938 269.566406 Z M 744.5 303.652344 C 743.796875 303.402344 741.425781 303.164062 737.808594 302.949219 C 714.121094 301.546875 636.304688 301.042969 613.644531 302.808594 C 610.582031 303.046875 608.515625 303.324219 607.738281 303.652344 C 601.3125 306.351562 600.59375 312.800781 605.289062 316.625 C 628.285156 313.300781 721.015625 314.3125 745.941406 316.898438 C 749.640625 312.96875 749.792969 305.558594 744.5 303.652344 Z M 127.527344 436.375 C 135.261719 436.46875 143.175781 437.65625 151.71875 438.566406 C 169.214844 440.429688 179.46875 430 187.449219 416.804688 C 187.746094 420.914062 191.132812 424.160156 195.308594 424.160156 C 199.683594 424.160156 203.230469 420.609375 203.230469 416.234375 C 203.230469 411.859375 199.683594 408.308594 195.308594 408.308594 C 194 408.308594 192.78125 408.660156 191.691406 409.222656 C 196.605469 399.867188 200.910156 390.058594 206.109375 382.699219 C 211.1875 375.507812 216.625 369.757812 222.765625 364.753906 C 222.761719 364.890625 222.726562 365.019531 222.726562 365.160156 C 222.726562 369.535156 226.273438 373.085938 230.648438 373.085938 C 235.019531 373.085938 238.566406 369.535156 238.566406 365.160156 C 238.566406 361.535156 236.125 358.515625 232.804688 357.570312 C 237.21875 354.777344 241.988281 352.144531 247.21875 349.515625 C 247.265625 349.488281 247.285156 349.46875 247.328125 349.445312 C 249.757812 348.140625 246.980469 347.117188 240.5 346.324219 C 240.417969 347.050781 239.945312 347.703125 239.203125 347.960938 C 214.800781 356.410156 206.496094 371.253906 195.980469 390.042969 C 191.5 398.054688 186.867188 406.339844 180.460938 415.167969 C 168.515625 431.65625 158.441406 430.757812 145.703125 429.59375 C 134.207031 428.550781 119.902344 427.261719 97.90625 437.585938 C 66.949219 452.121094 54.980469 480.261719 46.242188 500.800781 C 41.75 511.351562 38.207031 519.6875 33.226562 523.882812 C 25.804688 530.136719 19.152344 531.742188 14.277344 531.742188 C 11.230469 531.742188 8.886719 531.113281 7.472656 530.605469 C 7.878906 532.144531 8.328125 533.378906 8.8125 534.300781 C 5.390625 535.171875 2.84375 538.253906 2.84375 541.953125 C 2.84375 546.328125 6.390625 549.878906 10.761719 549.878906 C 10.796875 549.878906 10.828125 549.871094 10.863281 549.871094 C 15.191406 549.816406 18.6875 546.296875 18.6875 541.953125 C 18.6875 539.917969 17.898438 538.082031 16.636719 536.675781 C 26.355469 536.804688 35.65625 533.015625 41.179688 523.398438 C 43.257812 519.785156 45 516.480469 46.570312 513.332031 C 47.707031 516.316406 50.574219 518.449219 53.957031 518.449219 C 58.328125 518.449219 61.875 514.898438 61.875 510.523438 C 61.875 506.148438 58.328125 502.601562 53.957031 502.601562 C 53.085938 502.601562 52.261719 502.773438 51.480469 503.035156 C 54.902344 495.648438 58.238281 488.449219 63.839844 479.441406 C 66.921875 474.480469 70.226562 469.800781 73.820312 465.429688 C 74.730469 468.804688 77.78125 471.304688 81.4375 471.304688 C 85.8125 471.304688 89.359375 467.753906 89.359375 463.378906 C 89.359375 459.539062 86.636719 456.34375 83.015625 455.613281 C 88.070312 450.894531 93.65625 446.695312 99.925781 443.109375 C 107.230469 438.933594 114.234375 437.132812 121.289062 436.574219 C 118.589844 437.835938 116.710938 440.554688 116.710938 443.734375 C 116.710938 448.113281 120.257812 451.660156 124.628906 451.660156 C 129.003906 451.660156 132.550781 448.113281 132.550781 443.734375 C 132.554688 440.382812 130.464844 437.53125 127.527344 436.375 Z M 127.527344 436.375 "/>
<path style=" stroke:none;fill-rule:nonzero;fill:rgb(100%,41.958618%,35.688782%);fill-opacity:1;" d="M 485.96875 328.78125 C 486.527344 326.304688 486.988281 323.8125 487.347656 321.304688 C 486.972656 323.960938 486.484375 326.605469 485.878906 329.222656 C 485.257812 331.917969 484.511719 334.617188 483.046875 337.035156 C 481.101562 340.222656 477.886719 342.816406 474.0625 344.015625 C 470.234375 345.203125 465.820312 344.917969 462.332031 343.070312 C 456.472656 339.960938 454.253906 333.355469 453.550781 327.285156 C 453.132812 323.675781 453.089844 320.039062 453.398438 316.421875 C 456.832031 319.59375 462.121094 321.394531 466.410156 323.035156 C 472.648438 325.410156 479.34375 326.863281 485.753906 328.71875 C 485.832031 328.746094 485.898438 328.765625 485.96875 328.78125 Z M 516.523438 282.097656 C 516.59375 282.214844 516.664062 282.316406 516.738281 282.417969 C 514.207031 287.878906 510.898438 292.453125 506.097656 297.257812 C 504.40625 298.949219 502.667969 300.480469 500.90625 301.933594 C 496.765625 305.363281 492.457031 308.183594 488.050781 310.382812 C 476.445312 316.171875 464.265625 317.855469 453.214844 316.273438 C 447.5 315.457031 442.09375 313.757812 437.226562 311.308594 C 423.667969 304.488281 414.304688 291.800781 414.304688 275.734375 C 414.304688 273.519531 414.273438 271.425781 414.238281 269.386719 C 416.707031 264.652344 418.164062 257.507812 419.046875 253.910156 C 422.453125 240.097656 420.851562 213.003906 440.644531 209.386719 C 437.53125 224.804688 465.257812 237.777344 477.929688 237.578125 C 481.738281 237.515625 493.597656 234.410156 496.949219 236.84375 C 499.644531 238.796875 499.398438 245.941406 499.535156 249.152344 C 499.902344 257.570312 496.4375 278.746094 507.40625 280.613281 C 517.347656 282.308594 513.347656 267.871094 517.238281 267.871094 C 521.132812 267.867188 515.464844 280.339844 516.523438 282.097656 Z M 369.652344 530.835938 C 369.316406 532.113281 368.984375 533.382812 368.652344 534.652344 C 367.078125 540.671875 365.558594 546.574219 364.101562 552.292969 L 315.03125 529.800781 C 309.902344 547.125 304.605469 567.246094 294.9375 603.644531 C 293.605469 608.664062 292.191406 613.972656 290.683594 619.648438 C 290.683594 619.648438 280.390625 623.171875 272.765625 628.230469 C 263.0625 634.675781 267.003906 645.601562 279.792969 647.484375 C 293.457031 649.492188 296.769531 649.335938 323.085938 649.648438 C 322.308594 649.636719 321.550781 649.617188 320.8125 649.597656 C 320.449219 648.894531 320.179688 648.183594 319.980469 647.398438 C 318.566406 642.054688 320.921875 636.550781 326.300781 632.664062 C 332.113281 628.5 339.339844 625.199219 342.792969 623.746094 C 344.5625 616.007812 351.277344 586.78125 360.460938 550.632812 L 364.109375 552.324219 C 356.96875 580.339844 351.390625 604.027344 348.445312 616.675781 C 348.445312 616.714844 348.445312 616.757812 348.40625 616.835938 C 346.957031 623.078125 346.171875 626.578125 346.171875 626.578125 C 346.171875 626.578125 346.15625 626.585938 346.152344 626.585938 C 346.152344 626.589844 346.152344 626.597656 346.152344 626.597656 C 346.152344 626.597656 345.851562 626.710938 345.351562 626.917969 C 345.25 626.957031 345.152344 627 345.035156 627.050781 C 342.203125 628.226562 334.511719 631.566406 328.582031 635.847656 C 322.847656 640.015625 322.21875 645.632812 325.515625 649.679688 C 324.734375 649.679688 323.972656 649.667969 323.226562 649.65625 C 323.972656 649.664062 324.730469 649.675781 325.515625 649.683594 C 327.625 652.304688 331.332031 654.289062 336.363281 654.828125 C 351.402344 656.441406 353.914062 655.941406 387.839844 655.082031 C 396.015625 653.859375 397.539062 641.5625 405.792969 614.65625 C 407.546875 608.9375 409.488281 602.96875 411.550781 596.828125 C 415.6875 584.535156 420.367188 571.46875 425.269531 557.960938 C 425.710938 556.738281 426.15625 555.515625 426.601562 554.285156 C 426.601562 554.28125 426.605469 554.28125 426.605469 554.277344 L 369.660156 530.828125 C 369.65625 530.824219 369.652344 530.832031 369.652344 530.835938 Z M 369.652344 530.835938 "/>
<path style=" stroke:none;fill-rule:nonzero;fill:rgb(13.729858%,2.749634%,21.958923%);fill-opacity:1;" d="M 507.40625 280.609375 C 496.441406 278.742188 499.90625 257.5625 499.539062 249.148438 C 499.402344 245.9375 499.644531 238.792969 496.949219 236.839844 C 493.597656 234.40625 481.742188 237.511719 477.933594 237.574219 C 465.261719 237.773438 437.53125 224.800781 440.648438 209.382812 C 420.855469 213.003906 422.457031 240.089844 419.050781 253.90625 C 418.167969 257.5 416.710938 264.648438 414.238281 269.382812 C 413.316406 271.15625 412.253906 272.601562 411.019531 273.382812 C 407.164062 275.820312 405.109375 275.128906 404.054688 273.136719 C 331.464844 301.355469 282.066406 343.238281 275.316406 349.144531 C 275.183594 349.257812 275.082031 349.351562 274.980469 349.4375 L 271.585938 349.4375 C 271.078125 348.648438 271.15625 347.59375 271.878906 346.9375 C 271.988281 346.835938 273.296875 345.664062 275.703125 343.644531 C 289.058594 332.449219 336.425781 295.140625 403.121094 269.296875 C 402.929688 266.917969 403.15625 264.277344 403.347656 262.417969 C 404.167969 254.4375 401.449219 247.390625 398.914062 240.210938 C 397.710938 236.8125 396.546875 233.386719 395.820312 229.824219 C 393.734375 219.597656 394.027344 207.3125 398.792969 198 C 411.332031 173.480469 436.070312 170.851562 436.070312 170.851562 C 436.070312 170.851562 457.4375 153.917969 488.175781 156.992188 C 519.121094 160.09375 550.78125 190.203125 547.269531 224.210938 C 545.648438 239.953125 537.984375 253.863281 530.496094 267.5625 C 529.046875 270.21875 527.601562 272.863281 526.210938 275.511719 C 524.722656 278.351562 520.324219 287.722656 516.742188 282.414062 C 516.667969 282.3125 516.597656 282.210938 516.527344 282.09375 C 515.46875 280.335938 521.136719 267.859375 517.242188 267.859375 C 513.347656 267.867188 517.351562 282.304688 507.40625 280.609375 Z M 611.214844 267.027344 C 571.796875 276.734375 537.855469 291.050781 512.710938 303.683594 C 514.40625 304.027344 516.085938 304.421875 517.765625 304.855469 C 542.539062 292.410156 575.300781 278.699219 613.089844 269.5625 C 612.292969 268.804688 611.660156 267.953125 611.214844 267.027344 Z M 753.027344 341.757812 L 752.519531 342.417969 C 752.921875 342.417969 753.183594 342.109375 753.414062 341.652344 L 772.425781 341.652344 L 772.425781 470.671875 C 768.703125 466.542969 764.757812 462.476562 760.648438 458.597656 L 760.648438 380.941406 L 599.660156 380.941406 L 599.660156 387.136719 C 597.75 381.042969 595.449219 375.023438 592.730469 369.152344 L 772.421875 369.152344 L 772.421875 366.714844 C 771.011719 366.953125 769.597656 367.109375 768.144531 367.109375 C 758.449219 367.109375 749.890625 357.601562 745.570312 349.507812 L 614.738281 349.507812 C 610.417969 357.605469 601.855469 367.109375 592.160156 367.109375 C 592.027344 367.109375 591.898438 367.089844 591.765625 367.089844 C 590.554688 364.585938 589.253906 362.113281 587.882812 359.675781 L 587.882812 341.652344 L 600.328125 341.652344 C 600.414062 341.714844 600.472656 341.753906 600.472656 341.753906 L 753.027344 341.753906 Z M 601.703125 357.351562 C 601.703125 356.222656 600.789062 355.308594 599.664062 355.308594 C 598.535156 355.308594 597.625 356.222656 597.625 357.351562 C 597.625 358.476562 598.535156 359.390625 599.664062 359.390625 C 600.789062 359.394531 601.703125 358.476562 601.703125 357.351562 Z M 608.476562 349.613281 C 608.476562 348.484375 607.566406 347.570312 606.441406 347.570312 C 605.3125 347.570312 604.398438 348.484375 604.398438 349.613281 C 604.398438 350.738281 605.3125 351.652344 606.441406 351.652344 C 607.566406 351.652344 608.476562 350.738281 608.476562 349.613281 Z M 619.089844 375.082031 C 619.089844 373.953125 618.179688 373.042969 617.050781 373.042969 C 615.921875 373.042969 615.007812 373.953125 615.007812 375.082031 C 615.007812 376.210938 615.921875 377.125 617.050781 377.125 C 618.179688 377.125 619.089844 376.210938 619.089844 375.082031 Z M 646.125 375.082031 C 646.125 373.953125 645.214844 373.042969 644.089844 373.042969 C 642.957031 373.042969 642.042969 373.953125 642.042969 375.082031 C 642.042969 376.210938 642.957031 377.125 644.089844 377.125 C 645.214844 377.128906 646.125 376.210938 646.125 375.082031 Z M 673.15625 375.082031 C 673.15625 373.953125 672.246094 373.042969 671.117188 373.042969 C 669.988281 373.042969 669.074219 373.953125 669.074219 375.082031 C 669.074219 376.210938 669.988281 377.125 671.117188 377.125 C 672.246094 377.125 673.15625 376.210938 673.15625 375.082031 Z M 700.1875 375.082031 C 700.1875 373.957031 699.277344 373.042969 698.152344 373.042969 C 697.023438 373.042969 696.109375 373.957031 696.109375 375.082031 C 696.109375 376.210938 697.023438 377.125 698.152344 377.125 C 699.277344 377.125 700.1875 376.210938 700.1875 375.082031 Z M 727.226562 375.082031 C 727.226562 373.953125 726.3125 373.042969 725.1875 373.042969 C 724.058594 373.042969 723.144531 373.953125 723.144531 375.082031 C 723.144531 376.210938 724.058594 377.125 725.1875 377.125 C 726.3125 377.125 727.226562 376.210938 727.226562 375.082031 Z M 754.257812 375.082031 C 754.257812 373.957031 753.34375 373.042969 752.21875 373.042969 C 751.089844 373.042969 750.179688 373.957031 750.179688 375.082031 C 750.179688 376.210938 751.09375 377.125 752.21875 377.125 C 753.34375 377.125 754.257812 376.210938 754.257812 375.082031 Z M 769.351562 441.128906 C 769.351562 440 768.4375 439.085938 767.3125 439.085938 C 766.183594 439.085938 765.269531 440 765.269531 441.128906 C 765.269531 442.257812 766.183594 443.171875 767.3125 443.171875 C 768.4375 443.171875 769.351562 442.257812 769.351562 441.128906 Z M 769.351562 414.078125 C 769.351562 412.949219 768.4375 412.039062 767.3125 412.039062 C 766.183594 412.039062 765.269531 412.949219 765.269531 414.078125 C 765.269531 415.207031 766.183594 416.121094 767.3125 416.121094 C 768.4375 416.121094 769.351562 415.207031 769.351562 414.078125 Z M 769.351562 387.027344 C 769.351562 385.898438 768.4375 384.984375 767.3125 384.984375 C 766.183594 384.984375 765.269531 385.898438 765.269531 387.027344 C 765.269531 388.15625 766.183594 389.070312 767.3125 389.070312 C 768.4375 389.070312 769.351562 388.15625 769.351562 387.027344 Z M 758.253906 357.351562 C 758.253906 358.480469 759.171875 359.394531 760.296875 359.394531 C 761.425781 359.394531 762.335938 358.480469 762.335938 357.351562 C 762.335938 356.222656 761.425781 355.308594 760.296875 355.308594 C 759.171875 355.308594 758.253906 356.222656 758.253906 357.351562 Z M 751.480469 349.613281 C 751.480469 350.742188 752.390625 351.65625 753.519531 351.65625 C 754.648438 351.65625 755.5625 350.742188 755.5625 349.613281 C 755.5625 348.484375 754.648438 347.570312 753.519531 347.570312 C 752.394531 347.570312 751.480469 348.484375 751.480469 349.613281 Z M 796.585938 502.398438 C 797.394531 505.675781 797.289062 508.515625 795.523438 510.285156 C 786.652344 519.164062 775.695312 527.386719 761.035156 536.164062 C 715.242188 563.578125 661.484375 581.753906 605.585938 588.207031 C 600.101562 588.839844 591.496094 589.875 581.632812 589.875 L 581.628906 589.875 C 567.511719 589.875 555.664062 588.011719 547.367188 585.023438 C 545.472656 584.339844 543.785156 583.289062 542.246094 581.984375 C 541.472656 582.65625 540.679688 583.308594 539.878906 583.949219 C 540.105469 584.464844 540.320312 584.984375 540.558594 585.492188 C 540.578125 585.507812 540.59375 585.519531 540.613281 585.53125 C 542.25 586.75 544.042969 587.671875 546.042969 588.390625 C 557.054688 592.363281 571.472656 593.082031 581.628906 593.082031 L 581.632812 593.082031 C 591.6875 593.082031 600.453125 592.386719 606.039062 591.746094 C 662.484375 585.234375 716.78125 567.230469 763.054688 539.539062 C 777.996094 530.59375 789.195312 522.179688 798.304688 513.066406 C 799.363281 512.003906 800.074219 510.773438 800.488281 509.417969 C 799.324219 507.023438 797.980469 504.648438 796.585938 502.398438 Z M 453.214844 316.273438 C 453.273438 316.328125 453.339844 316.375 453.398438 316.425781 C 456.832031 319.597656 462.121094 321.398438 466.410156 323.035156 C 472.648438 325.414062 479.34375 326.867188 485.753906 328.722656 C 485.832031 328.746094 485.898438 328.765625 485.96875 328.78125 C 486.527344 326.304688 486.988281 323.8125 487.347656 321.304688 C 487.710938 318.789062 487.972656 316.257812 488.121094 313.71875 C 488.1875 312.617188 488.214844 311.476562 488.046875 310.382812 C 476.445312 316.167969 464.265625 317.851562 453.214844 316.273438 Z M 450.667969 289.585938 L 449.410156 293.304688 C 452.019531 294.1875 454.519531 294.558594 456.871094 294.558594 C 465.289062 294.558594 471.855469 289.785156 474.859375 286.253906 L 471.867188 283.707031 C 468.664062 287.46875 460.585938 292.9375 450.667969 289.585938 Z M 475.121094 242.304688 L 474.59375 242.25 C 471.789062 241.96875 468.894531 241.683594 465.875 242.523438 C 464.503906 242.914062 463.707031 244.335938 464.089844 245.703125 C 464.390625 246.742188 465.261719 247.453125 466.265625 247.578125 C 466.589844 247.613281 466.933594 247.597656 467.261719 247.5 C 469.347656 246.917969 471.640625 247.148438 474.082031 247.394531 L 474.617188 247.449219 C 476.035156 247.585938 477.308594 246.550781 477.449219 245.128906 C 477.578125 243.710938 476.496094 242.40625 475.121094 242.304688 Z M 439.3125 241.945312 C 437.460938 242.027344 435.546875 242.113281 433.285156 243.238281 C 432.003906 243.875 431.484375 245.414062 432.117188 246.695312 C 432.515625 247.507812 433.289062 248.015625 434.117188 248.113281 C 434.601562 248.167969 435.109375 248.09375 435.578125 247.863281 C 436.804688 247.257812 437.785156 247.1875 439.542969 247.113281 C 440.964844 247.050781 442.066406 245.835938 442.003906 244.40625 C 441.933594 242.988281 440.753906 241.859375 439.3125 241.945312 Z M 498.777344 422.269531 L 491.78125 398.773438 L 477.996094 352.507812 C 477.492188 350.816406 475.636719 349.445312 473.878906 349.464844 L 381.648438 350.167969 L 378.039062 350.195312 C 376.277344 350.210938 375.246094 351.601562 375.75 353.292969 L 376.875 357.074219 L 376.894531 357.132812 C 379.804688 357.1875 382.679688 357.464844 385.1875 358.121094 C 390.894531 359.625 396.199219 362.09375 401.640625 364.300781 C 403.328125 364.980469 405.480469 365.691406 407.515625 366.574219 C 407.851562 366.714844 408.175781 366.863281 408.5 367.011719 C 408.519531 367.023438 408.539062 367.03125 408.558594 367.042969 C 408.992188 367.25 409.414062 367.46875 409.820312 367.699219 C 409.847656 367.714844 409.867188 367.730469 409.890625 367.742188 C 410.136719 367.886719 410.371094 368.039062 410.601562 368.195312 C 410.746094 368.292969 410.90625 368.378906 411.046875 368.484375 C 426.699219 359.105469 447.472656 358.0625 463.640625 366.886719 C 463.640625 366.886719 481.253906 378.050781 488.171875 407.230469 C 490.535156 417.207031 496.578125 438.621094 503.503906 462.476562 L 503.511719 462.476562 C 503.507812 462.460938 503.503906 462.441406 503.496094 462.429688 C 504.992188 462.308594 506.25 461.757812 507.152344 460.933594 C 507.292969 461.417969 507.441406 461.921875 507.589844 462.4375 C 509.3125 462.390625 510.320312 461.015625 509.820312 459.34375 Z M 436.996094 258.078125 C 434.726562 258.230469 433.007812 260.191406 433.160156 262.46875 C 433.3125 264.738281 435.269531 266.457031 437.546875 266.308594 C 439.804688 266.152344 441.527344 264.1875 441.382812 261.917969 C 441.222656 259.644531 439.261719 257.921875 436.996094 258.078125 Z M 465.460938 262.460938 C 465.625 264.738281 467.578125 266.457031 469.851562 266.304688 C 472.121094 266.148438 473.839844 264.183594 473.6875 261.914062 C 473.527344 259.644531 471.570312 257.929688 469.296875 258.074219 C 467.035156 258.234375 465.308594 260.1875 465.460938 262.460938 Z M 613.3125 292.277344 C 613.875 291.890625 614.507812 291.539062 615.230469 291.242188 C 621.796875 288.582031 731.582031 289.410156 736.851562 291.242188 C 737.605469 291.503906 738.21875 291.894531 738.730469 292.367188 C 741.535156 294.949219 740.859375 300.179688 737.808594 302.953125 C 714.121094 301.546875 636.304688 301.042969 613.644531 302.8125 C 609.421875 299.988281 609.246094 295.074219 613.3125 292.277344 Z M 660.519531 297.445312 L 727.503906 297.445312 L 727.503906 293.515625 L 660.519531 293.515625 Z M 612.671875 323.464844 L 612.671875 331.320312 L 705.171875 331.320312 L 705.171875 323.464844 Z M 612.671875 323.464844 "/>
</g>
</svg>
